<?xml version="1.0" standalone="no"?>
<!DOCTYPE svg PUBLIC "-//W3C//DTD SVG 20010904//EN"
 "http://www.w3.org/TR/2001/REC-SVG-20010904/DTD/svg10.dtd">
<svg version="1.0" xmlns="http://www.w3.org/2000/svg"
 width="500.000000pt" height="500.000000pt" viewBox="0 0 500.000000 500.000000"
 preserveAspectRatio="xMidYMid meet">

<g transform="translate(0.000000,500.000000) scale(0.100000,-0.100000)"
fill="#000000" stroke="none">
<path d="M3270 3788 c-105 -83 -200 -145 -310 -201 -108 -55 -118 -62 -69 -45
68 23 282 138 350 188 l71 51 -3 -47 c-3 -48 5 -61 29 -45 9 5 12 30 10 83
l-3 75 -75 -59z"/>
<path d="M1573 3699 c3 -13 11 -57 18 -96 8 -46 17 -73 25 -73 7 0 19 -3 28
-6 13 -5 16 1 16 27 0 19 -4 49 -9 67 -7 23 -6 32 2 32 7 0 100 -40 207 -89
l195 -89 5 -190 c4 -139 9 -193 19 -205 20 -25 122 -24 144 1 25 27 25 402 1
426 -18 19 -115 22 -142 5 -14 -9 -60 9 -247 96 -276 128 -270 126 -262 94z"/>
<path d="M3320 3660 c-69 -33 -168 -73 -220 -89 -106 -34 -240 -64 -249 -56
-3 3 -7 18 -8 33 -2 15 -11 33 -20 40 -25 18 -107 15 -132 -5 -21 -18 -21 -23
-19 -258 l3 -240 37 -3 c32 -3 44 3 78 35 l40 38 7 105 c4 58 7 120 7 138 0
35 16 41 60 20 31 -13 41 -56 32 -131 l-7 -52 173 -36 c199 -42 204 -41 190
41 -4 25 -7 95 -7 155 0 107 -1 110 -25 123 -21 12 -35 11 -95 -7 -101 -30
-249 -61 -288 -61 -25 0 -33 4 -34 20 -1 11 2 22 6 25 5 2 58 14 117 26 117
22 304 79 367 111 22 11 41 17 44 15 2 -3 -3 -26 -12 -52 -48 -141 -38 -344
22 -470 9 -19 15 -37 12 -39 -2 -3 -110 18 -238 45 -185 39 -236 47 -242 37
-5 -7 -5 -14 -1 -15 71 -20 564 -124 568 -120 3 2 -7 33 -21 68 -81 191 -92
377 -35 562 10 31 17 57 16 56 0 0 -57 -27 -126 -59z m-156 -283 c12 -33 -15
-77 -47 -77 -39 0 -59 22 -55 60 6 62 82 74 102 17z"/>
<path d="M3110 3355 c7 -9 15 -13 17 -11 7 7 -7 26 -19 26 -6 0 -6 -6 2 -15z"/>
<path d="M3222 3669 c-17 -12 -32 -22 -32 -24 0 -4 72 3 77 8 3 3 1 12 -4 21
-7 13 -12 12 -41 -5z"/>
<path d="M2481 3611 c-18 -18 -19 -37 -18 -275 l0 -256 89 0 88 0 0 258 c0
238 -1 260 -18 275 -27 24 -116 23 -141 -2z"/>
<path d="M3128 3614 c-38 -20 -36 -28 2 -9 17 9 30 18 30 20 0 7 -1 6 -32 -11z"/>
<path d="M1700 3554 c0 -32 1 -34 16 -20 8 9 20 16 25 16 18 0 9 17 -16 28
-24 11 -25 10 -25 -24z"/>
<path d="M2282 3574 c-22 -15 -22 -18 -22 -254 0 -236 0 -239 22 -254 26 -19
59 -21 75 -5 6 6 26 14 45 18 l33 7 0 238 c0 224 -1 238 -19 252 -26 19 -106
18 -134 -2z"/>
<path d="M1800 3535 c14 -8 30 -14 35 -14 6 0 -1 6 -15 14 -14 8 -29 14 -35
14 -5 0 1 -6 15 -14z"/>
<path d="M1515 3463 c62 -127 79 -204 79 -343 0 -70 -5 -145 -13 -170 -7 -25
-14 -52 -17 -62 -3 -11 34 4 123 50 70 36 182 85 248 108 134 48 134 57 -1 19
-115 -33 -180 -58 -255 -95 -51 -26 -60 -28 -55 -13 44 139 32 341 -28 476
l-25 56 27 -5 c240 -44 437 -72 444 -61 4 7 4 13 0 14 -11 4 -539 93 -550 93
-5 0 5 -30 23 -67z"/>
<path d="M3453 3498 c-26 -5 -43 -15 -43 -24 0 -8 7 -14 15 -14 19 0 19 -5 0
-34 -11 -17 -14 -35 -9 -65 l7 -41 28 61 c16 34 38 74 49 89 32 44 29 46 -47
28z"/>
<path d="M1910 3485 c14 -8 30 -14 35 -14 6 0 -1 6 -15 14 -14 8 -29 14 -35
14 -5 0 1 -6 15 -14z"/>
<path d="M1651 3418 c0 -7 4 -21 7 -31 6 -15 10 -13 25 13 l18 30 -25 0 c-15
0 -26 -6 -25 -12z"/>
<path d="M1728 3413 c6 -2 18 -2 25 0 6 3 1 5 -13 5 -14 0 -19 -2 -12 -5z"/>
<path d="M1788 3403 c6 -2 18 -2 25 0 6 3 1 5 -13 5 -14 0 -19 -2 -12 -5z"/>
<path d="M1848 3393 c6 -2 18 -2 25 0 6 3 1 5 -13 5 -14 0 -19 -2 -12 -5z"/>
<path d="M1908 3383 c6 -2 18 -2 25 0 6 3 1 5 -13 5 -14 0 -19 -2 -12 -5z"/>
<path d="M1968 3373 c6 -2 18 -2 25 0 6 3 1 5 -13 5 -14 0 -19 -2 -12 -5z"/>
<path d="M2020 3366 c0 -2 7 -6 15 -10 8 -3 15 -1 15 4 0 6 -7 10 -15 10 -8 0
-15 -2 -15 -4z"/>
<path d="M2865 3288 c-4 -47 -5 -92 -2 -100 2 -7 8 26 12 74 4 47 5 92 2 100
-2 7 -8 -26 -12 -74z"/>
<path d="M2033 3285 c0 -27 2 -38 4 -22 2 15 2 37 0 50 -2 12 -4 0 -4 -28z"/>
<path d="M1681 3304 c0 -11 3 -14 6 -6 3 7 2 16 -1 19 -3 4 -6 -2 -5 -13z"/>
<path d="M1865 3270 c-3 -6 3 -22 14 -36 23 -30 29 -20 6 10 -8 10 -12 23 -9
27 3 5 3 9 0 9 -3 0 -8 -5 -11 -10z"/>
<path d="M1692 3235 c0 -16 2 -22 5 -12 2 9 2 23 0 30 -3 6 -5 -1 -5 -18z"/>
<path d="M1523 3159 c-23 -49 -39 -89 -37 -89 3 0 25 5 50 11 42 11 63 39 28
39 -14 0 -14 2 0 22 17 23 20 61 8 90 -5 11 -19 -10 -49 -73z"/>
<path d="M2018 3133 c7 -3 16 -2 19 1 4 3 -2 6 -13 5 -11 0 -14 -3 -6 -6z"/>
<path d="M1689 3078 c-4 -54 -3 -57 16 -52 11 4 31 13 45 21 14 8 18 12 10 10
-22 -6 -57 25 -62 54 -2 13 -6 -2 -9 -33z"/>
<path d="M1978 3123 c7 -3 16 -2 19 1 4 3 -2 6 -13 5 -11 0 -14 -3 -6 -6z"/>
<path d="M1938 3113 c7 -3 16 -2 19 1 4 3 -2 6 -13 5 -11 0 -14 -3 -6 -6z"/>
<path d="M2760 3064 c-19 -11 -67 -14 -197 -13 -95 0 -177 -2 -183 -6 -14 -9
-13 -33 7 -89 28 -76 37 -79 238 -78 149 0 180 3 217 20 40 17 118 85 118 101
0 9 -147 81 -163 80 -6 -1 -23 -7 -37 -15z"/>
<path d="M2230 3033 c-15 -8 -47 -12 -80 -11 l-55 3 3 -45 c7 -103 44 -169
117 -211 48 -27 54 -34 73 -92 11 -34 23 -79 27 -99 l7 -38 177 0 177 0 13 63
c21 102 43 143 93 167 23 12 54 32 66 44 24 22 56 75 50 82 -2 2 -24 -7 -49
-19 -40 -20 -62 -22 -225 -25 l-182 -4 -31 29 c-18 16 -39 51 -49 82 -16 47
-22 55 -48 58 -16 3 -36 10 -44 17 -12 10 -20 10 -40 -1z"/>
<path d="M2807 2728 c-39 -67 -57 -117 -56 -157 0 -31 3 -25 23 39 12 41 32
94 44 118 12 23 20 42 18 42 -2 0 -15 -19 -29 -42z"/>
<path d="M2863 2738 c-32 -60 -43 -90 -42 -117 1 -20 4 -15 13 19 7 25 23 64
35 88 25 49 20 58 -6 10z"/>
<path d="M2131 2728 c7 -13 20 -48 30 -78 11 -36 17 -47 18 -30 1 25 -43 130
-54 130 -3 0 0 -10 6 -22z"/>
<path d="M2186 2720 c9 -19 28 -66 41 -105 20 -61 23 -65 19 -29 -4 40 -46
138 -68 159 -6 6 -2 -6 8 -25z"/>
<path d="M2728 2694 c-10 -16 -40 -146 -35 -150 2 -3 14 -6 26 -9 18 -3 21 1
21 35 0 21 4 49 9 62 9 24 -10 80 -21 62z"/>
<path d="M2775 2569 c-8 -35 -9 -34 28 -43 l28 -7 -21 41 c-11 22 -22 40 -24
40 -3 0 -7 -14 -11 -31z"/>
<path d="M2270 2503 c-150 -19 -563 -124 -548 -138 2 -3 65 6 139 19 206 37
372 50 634 49 256 0 394 -11 625 -48 79 -13 146 -22 148 -20 8 8 -255 87 -371
111 -107 22 -151 26 -357 29 -129 2 -251 1 -270 -2z"/>
<path d="M2160 1895 l0 -205 55 0 54 0 3 63 3 62 24 -62 23 -63 54 0 c30 0 54
2 54 4 0 2 -14 37 -31 77 l-31 73 27 65 c15 36 29 72 32 79 4 9 -10 12 -49 12
l-53 0 -25 -62 -25 -63 -3 113 -3 112 -54 0 -55 0 0 -205z"/>
<path d="M3470 2065 l0 -35 55 0 55 0 0 35 0 35 -55 0 -55 0 0 -35z"/>
<path d="M3620 1895 l0 -205 55 0 55 0 0 205 0 205 -55 0 -55 0 0 -205z"/>
<path d="M3780 1895 l0 -205 50 0 50 0 0 205 0 205 -50 0 -50 0 0 -205z"/>
<path d="M1097 2083 c-4 -3 -7 -21 -7 -40 0 -32 1 -33 40 -33 l40 0 0 -160 0
-160 55 0 55 0 0 160 0 160 35 0 c34 0 35 1 35 40 l0 40 -123 0 c-68 0 -127
-3 -130 -7z"/>
<path d="M2457 2083 c-3 -4 -5 -95 -5 -200 l0 -193 49 0 49 0 1 118 1 117 22
-70 22 -70 40 -3 39 -3 22 73 21 73 1 -117 1 -118 50 0 50 0 -2 198 -3 197
-56 3 -56 3 -27 -88 c-42 -138 -39 -137 -72 -22 l-31 104 -56 3 c-30 2 -57 -1
-60 -5z"/>
<path d="M3158 2084 c-5 -4 -8 -94 -8 -201 l0 -193 106 0 c100 0 139 8 156 34
13 18 9 141 -4 154 -9 9 -9 15 0 24 7 7 12 40 12 78 0 95 -10 102 -148 108
-59 2 -110 1 -114 -4z m160 -116 c-3 -39 -6 -43 -30 -46 -27 -3 -28 -2 -28 42
0 45 1 46 31 46 29 0 30 -1 27 -42z m0 -160 c-3 -39 -6 -43 -30 -46 -27 -3
-28 -2 -28 42 0 45 1 46 31 46 29 0 30 -1 27 -42z"/>
<path d="M1380 1845 l0 -155 55 0 55 0 0 104 c0 110 3 116 51 116 16 0 19 7
19 45 0 38 -3 45 -19 45 -11 0 -26 -7 -34 -15 -13 -13 -16 -13 -21 0 -4 11
-21 15 -56 15 l-50 0 0 -155z"/>
<path d="M1622 1990 c-34 -14 -44 -55 -40 -163 3 -90 5 -101 27 -118 26 -21
71 -25 102 -9 13 7 19 7 19 0 0 -6 24 -10 54 -10 l55 0 -2 153 -2 152 -52 3
c-32 2 -53 -1 -53 -7 0 -7 -8 -7 -26 -1 -30 12 -51 12 -82 0z m108 -145 c0
-68 -2 -75 -20 -75 -18 0 -20 7 -20 75 0 68 2 75 20 75 18 0 20 -7 20 -75z"/>
<path d="M1930 1993 c-45 -17 -50 -32 -50 -149 0 -110 1 -113 26 -133 22 -17
41 -21 99 -21 89 0 114 16 118 75 l2 40 -48 3 c-42 3 -49 0 -54 -17 -3 -12
-14 -21 -25 -21 -17 0 -19 7 -16 72 2 60 6 73 21 76 12 2 17 -3 17 -17 0 -19
6 -21 55 -21 47 0 55 3 55 19 0 42 -22 80 -52 90 -32 11 -122 14 -148 4z"/>
<path d="M2850 1987 c0 -7 17 -72 39 -143 27 -91 43 -130 55 -132 30 -6 17
-21 -21 -24 -36 -3 -38 -5 -41 -40 l-3 -38 50 0 c41 0 56 5 82 28 27 24 36 48
74 187 23 88 40 163 38 168 -2 4 -26 7 -52 7 l-48 0 -13 -77 c-7 -43 -16 -82
-20 -86 -4 -4 -13 25 -20 65 -7 40 -15 79 -17 86 -7 17 -103 17 -103 -1z"/>
<path d="M3470 1846 l0 -156 55 0 56 0 -3 153 -3 152 -52 3 -53 3 0 -155z"/>
</g>
</svg>
